<?xml version="1.0" encoding="UTF-8"?>
<svg id="Layer_1" data-name="Layer 1" xmlns="http://www.w3.org/2000/svg" viewBox="0 0 489.77 648.43">
  <rect width="489.77" height="648.43" fill="#ffffff"/>
  <path d="M489.13,482.59c1.17-2.12-2.45-5.67-2.1-8.18,1.56-11.03.02-21.43-1.09-32.16-.81-7.91.07-34.81,1.14-42.31-.26,1.8-4.96-18.81,1.38-16.5.08.03.15.07.23.1-1.26-11.79-2.17-23.59-2.77-35.42-.76-1.32-1.47-3.08-.23-4.3-1.01-22.08-1.15-44.23-1.15-66.39,0-3.01.73-5.54,1.92-7.65.65-3.28-.62-6.14-.5-9.52l.74-21.98-.53-21.93c-.18-7.48-1.08-14.18,2.06-21.33,1.4-3.18-1.8-7.34-1.85-10.66l-.66-40.53.56-26.06-1.12-16.74.15-35.24-1.29-22.53c-.48-8.39.9-23.13-2.38-28.12-2.15-3.27-6.77-5.26-11.85-6.22-1.75-.33-82.69-1.85-83.62-1.8l-12.11.68c-14.92.84-29.7-.04-44.89-.49l-24.49-.73c-4.85-.15-10.08.51-14.66.1-8.93-.8-16.67-1.84-25.72-.37-3.07.5-8.6.27-11.44-.43-4.96-1.21-8.14.27-12.31.15l-92.38-2.59-14.4.53c2.24-.08-31.83-1.74-34.84-1.85l-29.02-1.13c-4.67-.18-7.21,1.01-12.06-.32-3.02-.83-9.41-.68-12.73-.03C30.3,3.55,16.07-3.04,4.61,1.9-2.14,4.82.91,13.8.49,18.8c-1.41,16.88,1.58,36.94.16,49.48-1.13,9.98-.45,19.46-.4,29.43l.26,48.23,1.13,14.85c.45,5.87-2.32,32.3-.19,48.36.44,3.34-1.43,7.63-1.3,11.48l1.83,54.15-.16,13.03.95,38.54c.3,12.28,1.59,24.37.21,36.42l-2.55,22.25c-.82,7.11,2.76,13.91,2.62,21.78l-.72,39.63-.22,13.72c-.27,17.09-.49,33.55-.02,50.46l.66,23.65-.2,13.07-.92,11.67c-.34,4.27.74,8.12.73,12.34l-.03,53.44c0,6.96,1.08,15.48,7.8,19.63,2.1,1.3,7.17,4.01,9.59,3.85l14.54-.95,87.81.52,16.53-.56,11.36-.04,62.75.54c4.94.04,8.14.64,13.02-.34,4.04-.81,9.68,1.09,14.43,1,9.07-.18,17.82-1.46,26.71-1.38l37.3.34,28.5-.03c10.07-.01,19.89-.13,29.94-.42,14-.4,27.43.24,41.43.13l38.48-.31,27.32.28s15.26-2.77,18.74-3.42c-2.35-13.19-1.08-26.54-.52-39.35l.95-21.55c-.29,6.55-1.12-88.74.78-75.77l-1.88-12.77c-.56-3.83-1.06-7.44,1.24-11.59ZM448.34,78.98c-3.1,5.24-.62,11.77-1.25,16.99l-2.6,21.4c-.64,5.27-.17,7.83,1.39,12.04,2.5,6.75-2.53,14.76.28,27.34,3.99,17.88-3.43,16.98-.98,32.67-.16-1.02.52,22.54-.92,19.97,4.71,8.44-.14,17.76,1.19,25.19,1.65,9.25,1.42,13.79-1.43,23.56l-6.63,22.73c-2.48,8.52.05,23.62.08,31.91.05,14.75-1.06,29.37.15,43.93.51,6.15-.87,10.09-1.47,16.02-1.49,14.83-.23,30.18,1.14,45.46l1.39,15.5,1.4,17.06.8,11.77,1.15,15.17c2.27,29.92-6.1,6.57.96,46.64l2.65,15.05.47,14.47c.39,12.04,3.78,24.87-3.86,36.73-1.3,2.02-.04,5.29-1.67,6.74-8.41,7.5-18.68.1-25.71,1.16-7.8,1.18-15.27-1.02-22.57-.57-5.45.34-10.21,2.96-15.6.21-3.05-1.55-21.85,1.59-25.5,2.36-4.98,1.05-5.8.86-9.64-1.64-9.77-6.37-9.21-18.5-5.98-27.99l10.43-30.59c1.05-3.08,5.85-3.71,7.67-6.94-2.11-5.44-2.91-10.93-.33-16.24,1.56-3.21,4.88-41.95,4.3-46.23-1.13-8.43,5.08-17.92,2.77-26.14-2.2-7.81-5.65-14.6-6.56-22.74-.58-5.18-1.98-5.83,1.42-10.79,20.41-29.79,13.45-37.49,20.02-48.14,13.64-22.08,6.05-21.14,16.14-41.82,3.91-8.01,6.29-15.62,6.79-24.76l.64-11.77c.39-7.25-2.4-12.86-3.43-19.86-.54-3.68.57-7.81-.12-12.24l-2.51-16.09c-1.12-7.19.3-14.4.23-22.17-.11-11.93,11.38-26.59,11.55-31.77.19-5.71,4.89-8.08,6.96-12.51,8.78-18.8,7.92-18.82,8.57-39.38l-12.71-5.48c-7.77-3.35-13.08-4.15-20.81-2.35-3.72.87-8.34-1.71-12.55,2-3.83,3.38-22.4,2.38-26,.23-3.39-2.03-20.78-5.01-23.19-1.29-4.02,6.21,1.29,19.86.25,31.97-.65,7.62-2.53,32.64,2.1,37.08,1.84,1.76,17.89,2.28,20.55,4.68,6.93,6.26,6.16,17.08,4.91,25.3-.61,4,1.76,7.82.9,11.57l-3.77,16.39c-2.63,11.43-6.89,21.74-8.65,33.45-.58,3.88-4.8,8.47-6.66,11.86-2.39,4.35-9.22,4.09-11.52,7.81-3.22,5.21-7.14,8.4-13.96,7.16-2.68,1.58-4.1,6.39-7.26,7.06-8.42-.22-16.13,3.63-19.96,10.29-11.02-.08-16.44,9.26-26.71,9.71.5-5.83-3.84-10.01-4.03-15.09-.24-6.72-1.29-15.95,1.53-21.7,6.72-13.71,6.88-27.67,3.81-42.62-1.14-5.58-.96-11.36-3.6-17.18-.55-1.21,1.35-3.75,1.06-4.8-.59-2.15-2.47-2.28-5.4-2.81,3.65-6.62-1.32-11.77-3.97-17.3-2.67-5.57-6.39-7.03-10.35-10.89-5.86-5.7-12.71-16.26-11.8-24.3,1.09-9.62.25-19.28,3.19-27.7,1.92-5.52,6.13-8.74,4.57-15.91-.49-2.25,3.12-4.99,1.57-7.26-2.65-3.88-2.04-5.55-6.59-5.74l-47.34-2.01c-3.58-.15-.82,5.58-1.5,7.34-1.65,4.27-1.04,8.04-.05,12.29,1.17,5.01-3.71,10.32-3.16,15.29.43,3.94-.88,6.94-1.04,10.54-.42,9.63,13.95,13.91,16.36,19.62,3.49,8.26-6.24,9.18-8.95,27.6-.37,2.49-1.04,4.04-.5,6.38.63,2.71,5.02.78,6.22,2.34,5.89,7.65,19.33,36.83,19.19,36.07l2.65,14.32c1.49,8.08,16.01,30.87,3.44,51.34-1.42,1.96,2.91,5.85,1.95,8.07l-3.2,7.38c-1.48,3.41-25.99,16.17-32.27,10.64-4.24-3.73-6.64-7.8-13.76-7.23-3.98.32-8.3-1.88-12.1-2.46-16.09-2.48-14.96-5-29.51-12.11-3.82-1.87-8.39,5.52-8.11,9.48.74,10.52-2.97,21.01-.98,31.01,1.06,5.35,1.97,7.7,1.94,13.49l-.08,15.43c-.02,4.56-3.41,14.21,1.44,17.84,10.79,8.07,35.6,4.31,49.28,6.7,4.64.81,10.01,3.46,14.53,2.59,14.57-2.82,5.34,5.93,28.09-7.08,4.56-2.61,9.15-1.58,13.6-2.92l11.78-3.53c6.99-2.09,12.95-1.23,18.81-5.94,8.47-6.81,19.52-9.64,28.45-15.89,5.13-3.59,11.99-1.65,16.08-3.85,6.29-3.37,7.91-12.82,13.36-16.82,4.72-3.47,8.17-6.31,11.47-10.88,3.08-4.27,9.1-6.06,11.68-11.01,1.8-3.45,5.4-7.67,9.57-8.03,3.21-.28,10.16.79,10.33,4.36.88,17.95-1.28,22.63-6.77,37.6-17.55,15.94-16.72,21.01-22.82,31.69-5.94,10.39-13.48,19.56-16.85,31.66-1.46,5.23-5.48,9.28-7.66,14.26-6.13,13.94,7.21,23.47,8.72,39.9.42,4.55,2.08,9.3,1.97,13.74-.33,13.18,3.67,32.06,3.71,30.77l-.52,19.23c-.31,11.66-1.06,26.46-7.18,35.5-1.54,2.27-1.86,4.39-4.59,5.4-2.13.79-4.77-1.02-7.16-.65-8.62,1.31-16.55.65-25.32.28-4.88-.2-9.82,1.75-14.92-.32-.95-.39-2.98,1.95-3.93,2.1-2.41.38-7.42-9.73-19.37-2.57-4.44,2.66-9.27.77-13.09,2.01-18.66,6.04-18.58-1.1-31.55,1.43l-13.77,2.69c-4.53.88-8.46-1.71-11.6-1.21-6.91,1.08-13.2,4.45-20.48,4.88-19.06,1.12-43.79,2.72-62.71.96l-31.28-2.9c-3.55-2.42-1.47-8.81-1.66-11.65-.43-6.37-6.15-11.91-4.86-18.19.69-3.37,1.92-5.8,1.6-9.55-.71-8.32.01-16.53.83-24.86l2.48-25.42c.28-2.91-.92-6.96,1.85-9.13-5.74-6.45-1.11-28.61,2.34-35.66,2.21-4.52.23-9.93.67-14.44l1.47-14.87c.42-4.27-4.33-8.76-3.51-12.83,1.46-7.24-.68-11.92-3.64-18.47-2.36-5.2,1.06-13.32-.04-18.98-1.95-10.05.53-19.76-.26-29.29-.42-5.06-4.08-8.24-3-14.41,2.55-14.52-1.26-29.86.3-44.81.22-2.1,4.1-4.59,2.2-6.86-5.92-7.06-2.12-17.98-2.51-25.03-.33-5.85-3.19-11.04-1.68-17.22l4.09-16.71c-4.89-4.91-7.24-12.65-3.52-18.86,3.3-5.51.3-9.28-.23-14.89-1.41-15.07,3.73-23.91,1.94-35.78l-2.05-13.59c-1.41-9.34,3.59-19.07.74-25.78-1.71-4.02-.98-11.63-.03-15.95.51-2.3,5.01-3.95,4.65-5.09l-2.54-8.07c.23.72.26-30.39,1.99-40.93.97-5.93,10.68-4.01,13.95-6.13,7.41-4.81,13.82-13.7,23.16-13.52l29.51.57c4.1.08,7.67-1.25,11.62.77,4.68,2.4,9.18.9,13.99.64,5.23-.28,10.32,3.5,15.84,2.51,5.32-.95,6.58-6.69,24.26-3.77l9.63,1.59,13.95-.1c8.85-.06,16.24.23,24.87-.5,4.41-.37,7.56,2.57,13.16-.22,1.48-.73,19.95-.46,24.83-.09l16.94,1.28c4.71.36,7.63-1.19,12.52-.5,21.78,3.04,10.35-2.37,27.61-1.28,4.69.3,15.39-1.56,24.38-.02,5.81.99,13.38-2.68,18.94.52,17.79,10.23,23.81,3.75,35.68,6.52,16.13,3.76,31.79,3.87,47.7,1.62,6.03-.63,4.58,21.44,2.59,24.81Z"/>
  <path d="M273.09,247.78c-3.57-10.83-9.27-20.45-14.02-30.63-.24-2.2,2.54-5.13,1.02-7.26-1.87-2.61-4.29-4.18-7.02-5.89-4.82-3.01-11.17-13.7-8.86-19.41,3.63-8.99,4.28-15.74,5.21-25.38l1.11-11.48c.54-5.61,2.18-9.83,5.1-14.09,1.37-2.01,1.3-4.73,2.6-6.14,2.71-2.93,20.65.71,19.37.72,1.53-.01,24.43-2.08,23.54-2.34,3.42,1.01,9.35,9.05,10.5,14.97.75,3.85-4.06,6.06-4.39,9.4-.78,7.92-2.73,16.29-2.53,24.11l.35,13.41,1.53,26.59c.41,7.21.62,15.66-2.41,22.9l-12.56,30.02c-2.34,5.59-3.97,11.34-12.02,10.75,2.26-7.22-9.75-17.22-6.51-30.26Z"/>
  <path d="M116.72,248.17c-1.86-4.9.11-9.09.02-12.81-.31-12.96.77-24.81,6.5-37.07,3.34-7.16-4.49-16.6-11.42-19.39-10.16-4.09-16.1-24.09-16.5-28.29.01.14,5.07-14.72,2.16-19.54-3.04-5.04.16-11.37,2.67-14.61,1.06-1.37.68-7.8,3.49-6.25,19.34,10.64,18.44,7.66,39.09-.1,9.32,4.18,10.26,13.39,10.9,21.98l2.22,30.06c.73,9.85,11.31,48.9-.89,61.49-2.11,2.17-4.44,7.13-6.58,8.62-22.36,15.6-13.07,19.11-29.57,35.82-11.8-1.7-1.3-17.81-2.1-19.9Z"/>
  <path d="M137.58,567.74c-16.11.5-15.46-19.66-16.44-24.8-2.17-11.39.18-31.03,3.36-42.23,1.4-4.95,4.53-9.6,5.01-14.75.9-9.61,6.91-14.42,13.19-20.7l15.99-15.97c3.03-3.02,3.66-5.65,9.13-4.32,3.3.8,7.62-.33,10.66,2.5-5.04,10.4-3.41,20.88-2.84,31.17.47,8.49-4.81,17.33-3.31,25.87,1,5.71,2.16,10.36,1.62,16.29-.44,4.78,7.51,9.6,5.68,15.03-1.08,3.21-.37,8.56-1.72,11.14-4.29,8.21-13.76,11.08-20.66,16.61-2.87,2.3-4.48,8.14-9.25,7.43-3.08-.45-6.5-3.4-10.41-3.28Z"/>
</svg>